<svg width="12" height="12" viewBox="0 0 12 12" fill="none" xmlns="http://www.w3.org/2000/svg">
<g clip-path="url(#clip0_2_46)">
<path d="M5.04 0.719971C2.78437 0.719971 0.959999 2.54435 0.959999 4.79997C0.959999 7.0556 2.78437 8.87997 5.04 8.87997C5.84531 8.87997 6.59062 8.64372 7.2225 8.24247L10.17 11.19L11.19 10.17L8.28 7.26747C8.80312 6.58122 9.12 5.73091 9.12 4.79997C9.12 2.54435 7.29562 0.719971 5.04 0.719971ZM5.04 1.67997C6.76781 1.67997 8.16 3.07216 8.16 4.79997C8.16 6.52778 6.76781 7.91997 5.04 7.91997C3.31219 7.91997 1.92 6.52778 1.92 4.79997C1.92 3.07216 3.31219 1.67997 5.04 1.67997Z" fill="#686868"/>
</g>
<defs>
<clipPath id="clip0_2_46">
<rect width="12" height="12" fill="white"/>
</clipPath>
</defs>
</svg>
